Coordinates
version=1
nRows=54
nColumns=12
inDegrees=yes

Units are S.I. units (second, meters, Newtons, ...)
Angles are in degrees

endheader
time	SC_y	SC_z	SC_x	AC_y	AC_z	AC_x	GH_y	GH_z	GH_yy	EL_x	PS_y
       0.0              -45.17          25.02          39.64          54.45          6.091         -1.654         -37.85          1.742         -34.52           66.3          107.1
   0.02026              -45.17          25.01          39.64          54.45          6.088         -1.653         -37.83          1.755         -34.49           66.3          107.1
   0.04053              -45.17          25.01          39.65          54.45          6.086         -1.652         -37.82          1.768         -34.46          66.31          107.1
   0.06079              -45.17           25.0          39.65          54.45          6.084         -1.651         -37.81          1.783         -34.43          66.32          107.1
   0.08106              -45.18           25.0          39.66          54.45          6.082          -1.65         -37.79          1.798          -34.4          66.33          107.1
    0.1013              -45.18          24.99          39.67          54.45          6.079         -1.649         -37.77          1.814         -34.36          66.34          107.2
    0.1216              -45.18          24.99          39.67          54.45          6.076         -1.647         -37.76          1.832         -34.32          66.35          107.2
    0.1419              -45.18          24.98          39.68          54.45          6.073         -1.646         -37.74           1.85         -34.28          66.36          107.2
    0.1621              -45.18          24.97          39.69          54.45           6.07         -1.645         -37.72           1.87         -34.24          66.37          107.2
    0.1824              -45.18          24.97          39.69          54.45          6.066         -1.643         -37.69          1.892         -34.19          66.38          107.2
    0.2026              -45.19          24.96           39.7          54.45          6.063         -1.641         -37.67          1.915         -34.14           66.4          107.2
    0.2229              -45.19          24.95          39.71          54.45          6.059          -1.64         -37.65           1.94         -34.08          66.41          107.2
    0.2432              -45.19          24.94          39.72          54.45          6.054         -1.638         -37.62          1.966         -34.02          66.43          107.2
    0.2634               -45.2          24.93          39.73          54.44           6.05         -1.636         -37.59          1.995         -33.96          66.44          107.2
    0.2837               -45.2          24.92          39.75          54.44          6.045         -1.633         -37.56          2.026         -33.89          66.46          107.2
     0.304               -45.2          24.91          39.76          54.44          6.039         -1.631         -37.52           2.06         -33.81          66.48          107.2
    0.3242              -45.21           24.9          39.77          54.44          6.033         -1.628         -37.49          2.097         -33.73           66.5          107.3
    0.3445              -45.21          24.88          39.79          54.44          6.027         -1.625         -37.44          2.137         -33.64          66.53          107.3
    0.3648              -45.21          24.87           39.8          54.44           6.02         -1.622          -37.4          2.181         -33.54          66.55          107.3
     0.385              -45.22          24.85          39.82          54.44          6.012         -1.619         -37.35          2.229         -33.43          66.58          107.3
    0.4053              -45.22          24.83          39.84          54.43          6.003         -1.615          -37.3          2.282         -33.31          66.61          107.3
    0.4256              -45.23          24.81          39.86          54.43          5.994         -1.611         -37.24           2.34         -33.18          66.64          107.3
    0.4458              -45.24          24.79          39.89          54.43          5.984         -1.606         -37.17          2.404         -33.04          66.68          107.4
    0.4661              -45.24          24.77          39.91          54.43          5.972         -1.601          -37.1          2.475         -32.88          66.72          107.4
    0.4864              -45.25          24.74          39.94          54.43           5.96         -1.596         -37.02          2.553          -32.7          66.77          107.4
    0.5066              -45.26          24.71          39.97          54.42          5.945         -1.589         -36.93          2.641         -32.51          66.82          107.4
    0.5269              -45.27          24.68          40.01          54.42           5.93         -1.582         -36.83           2.74         -32.29          66.88          107.5
    0.5472              -45.28          24.64          40.05          54.41          5.912         -1.574         -36.72          2.851         -32.04          66.94          107.5
    0.5674              -45.29           24.6           40.1          54.41          5.891         -1.565         -36.59          2.976         -31.76          67.01          107.5
    0.5877              -45.31          24.55          40.15           54.4          5.868         -1.555         -36.45          3.118         -31.44           67.1          107.6
    0.6079              -45.33           24.5          40.21           54.4          5.842         -1.543         -36.28           3.28         -31.08          67.19          107.6
    0.6282              -45.34          24.44          40.28          54.39          5.812          -1.53         -36.09          3.467         -30.66           67.3          107.7
    0.6485              -45.37          24.36          40.36          54.38          5.777         -1.515         -35.87          3.682         -30.18          67.43          107.8
    0.6687              -45.39          24.28          40.46          54.38          5.737         -1.497         -35.62          3.932         -29.62          67.57          107.9
     0.689              -45.42          24.18          40.57          54.37           5.69         -1.476         -35.32          4.224         -28.96          67.74          108.0
    0.7093              -45.46          24.07           40.7          54.35          5.634         -1.451         -34.97          4.569         -28.19          67.94          108.1
    0.7295               -45.5          23.93          40.85          54.34          5.568         -1.422         -34.55          4.978         -27.27          68.18          108.2
    0.7498              -45.55          23.76          41.03          54.32          5.489         -1.386         -34.05          5.469         -26.17          68.47          108.4
    0.7701              -45.61          23.56          41.26           54.3          5.393         -1.344         -33.45          6.063         -24.84          68.81          108.6
    0.7903              -45.68          23.32          41.53          54.27          5.276         -1.292         -32.71          6.789         -23.21          69.23          108.8
    0.8106              -45.77          23.02          41.86          54.24          5.132         -1.227         -31.79          7.685         -21.21          69.75          109.1
    0.8309              -45.88          22.64          42.28           54.2          4.951         -1.147         -30.66          8.801          -18.7           70.4          109.5
    0.8511              -46.03          22.17          42.81          54.15          4.724         -1.046         -29.22          10.21         -15.55          71.22          110.0
    0.8714              -46.21          21.57          43.47          54.09          4.436        -0.9181          -27.4           12.0         -11.54          72.26          110.6
    0.8917              -46.44           20.8          44.33          54.01          4.066        -0.7539         -25.07          14.29         -6.412           73.6          111.3
    0.9119              -46.74          19.81          45.43           53.9          3.592        -0.5431         -22.08          17.22         0.1713           75.3          112.3
    0.9322              -47.12          18.55          46.83          53.77          2.987        -0.2739         -18.26          20.98           8.58          77.49          113.6
    0.9525              -47.59          16.97           48.6           53.6          2.225        0.06458         -13.45          25.69          19.15          80.23          115.2
    0.9727              -48.18          15.03          50.75          53.39          1.297         0.4771         -7.593          31.44          32.04          83.58          117.1
     0.993              -48.85           12.8          53.24          53.15          0.222         0.9552        -0.8046          38.11          46.97          87.46          119.4
     1.013              -49.58          10.37          55.94           52.9        -0.9426          1.473          6.546          45.32          63.15          91.66          121.8
     1.034              -50.31          7.946          58.64          52.64         -2.107          1.991           13.9          52.54          79.32          95.85          124.2
     1.054              -50.99          5.706          61.13           52.4         -3.183          2.469          20.69           59.2          94.25          99.73          126.4
     1.074              -51.57          3.774          63.29          52.19          -4.11          2.881          26.54          64.95          107.1          103.1          128.4
